# xmcd CD database file
#
# Track frame offsets:
#	150
#	22572
#	39062
#	56602
#	75535
#	91802
#	111047
#	129025
#	151145
#	169187
#	200527
#	218190
#	232920
#	242665
#
# Disc length: 3439 seconds
#
# Revision: 0
# Processed by: cddbd v1.5.1PL0 Copyright (c) Steve Scherf et al.
# Submitted via: CDex 1.51
#
DISCID=960d6d0e
DTITLE=Wild Bill Davison - Struttin' With Some Barbecue
DYEAR=1900
DGENRE=Jazz
TTITLE0=Royal Garden Blues 
TTITLE1=Hindustan
TTITLE2=If I Had You
TTITLE3=All Of Me
TTITLE4=Wolverines Blues
TTITLE5=Struttin' With Some Barbecue
TTITLE6=Sunday
TTITLE7=Memories Of You
TTITLE8=I Don't Stand A Ghost Of A Chance With You
TTITLE9=Tin Roof Blues
TTITLE10=The Lady Is In Love With You
TTITLE11=Louise
TTITLE12=She's Funny That Way
TTITLE13=Back In Your Own Backyard
EXTD=
EXTT0=
EXTT1=
EXTT2=
EXTT3=
EXTT4=
EXTT5=
EXTT6=
EXTT7=
EXTT8=
EXTT9=
EXTT10=
EXTT11=
EXTT12=
EXTT13=
PLAYORDER=
